<?xml version="1.0" encoding="iso-8859-1"?>
<!-- Generator: Adobe Illustrator 16.0.0, SVG Export Plug-In . SVG Version: 6.00 Build 0)  -->
<!DOCTYPE svg PUBLIC "-//W3C//DTD SVG 1.1//EN" "http://www.w3.org/Graphics/SVG/1.1/DTD/svg11.dtd">
<svg version="1.1" id="Capa_1" xmlns="http://www.w3.org/2000/svg" xmlns:xlink="http://www.w3.org/1999/xlink" x="0px" y="0px"
	 width="949.999px" height="949.999px" viewBox="0 0 949.999 949.999" style="enable-background:new 0 0 949.999 949.999;"
	 xml:space="preserve">
<g>
	<g>
		<path d="M883.88,526.093c-3.773-15.362-67.893-11.866-73.428-26.453c-5.601-14.757,44.682-54.662,37.405-68.5
			c-7.333-13.942-68.73,4.861-77.639-8.021c-8.946-12.938,30.324-63.728,19.918-75.465c-10.419-11.753-65.557,21.145-77.31,10.725
			c-11.737-10.406,14.313-69.093,1.377-78.04c-12.882-8.908-58.576,36.183-72.521,28.85c-13.837-7.277-2.59-70.498-17.347-76.098
			c-14.586-5.535-48.093,49.215-63.456,45.441c-15.112-3.713-19.413-67.784-35.162-69.677
			c-15.407-1.851-34.812,59.336-50.721,59.336s-35.312-61.188-50.72-59.336c-15.748,1.892-20.048,65.964-35.161,69.676
			c-15.363,3.774-48.869-50.976-63.455-45.441c-14.757,5.599-3.51,68.821-17.347,76.098c-13.943,7.333-59.637-37.76-72.52-28.851
			c-12.937,8.946,13.114,67.634,1.377,78.04c-11.753,10.42-66.891-22.479-77.31-10.726c-10.406,11.736,28.864,62.527,19.918,75.465
			c-8.909,12.882-70.306-5.923-77.639,8.021c-7.277,13.838,43.004,53.744,37.404,68.5c-5.535,14.587-69.654,11.091-73.429,26.453
			c-3.712,15.113,54.696,41.732,52.804,57.48c-1.219,10.144-28.982,18.796-47.81,28.062c-7.627,3.754-4.99,15.218,3.512,15.218
			H345.27c6.63,0,12.199-5.018,12.847-11.615c5.833-59.414,55.938-105.835,116.884-105.835s111.051,46.421,116.884,105.835
			c0.647,6.598,6.217,11.615,12.847,11.615h85.396h115.366h69.881c8.501,0,11.139-11.464,3.511-15.218
			c-18.828-9.266-46.59-17.918-47.81-28.062C829.184,567.825,887.593,541.207,883.88,526.093z M736.361,586.019
			c-0.448-2.939-0.903-6.209-1.47-9.757c-0.198-1.076-0.404-2.188-0.613-3.316c-0.478-2.576-0.979-5.28-1.504-8.118
			c-0.341-2.056-0.875-4.126-1.335-6.286c-0.479-2.157-0.973-4.375-1.479-6.653c-0.468-2.292-1.114-4.591-1.725-6.964
			c-0.618-2.374-1.25-4.802-1.896-7.282c-0.624-2.49-1.458-4.964-2.199-7.527c-0.775-2.552-1.524-5.17-2.36-7.809
			c-0.894-2.618-1.8-5.279-2.723-7.983c-0.46-1.355-0.925-2.721-1.392-4.096c-0.49-1.364-1.035-2.719-1.555-4.095
			c-1.054-2.751-2.121-5.541-3.202-8.364c-1.132-2.802-2.376-5.593-3.58-8.446c-0.608-1.425-1.22-2.858-1.834-4.298
			c-0.627-1.436-1.332-2.836-2-4.27c-1.356-2.859-2.725-5.745-4.104-8.657c-5.848-11.467-12.396-23.1-19.833-34.462
			c-7.531-11.28-15.848-22.33-24.877-32.837c-9.143-10.391-19.007-20.178-29.344-29.182c-2.641-2.187-5.271-4.363-7.887-6.53
			c-1.29-1.117-2.668-2.099-4.02-3.117c-1.354-1.015-2.707-2.025-4.054-3.035c-1.35-1.011-2.695-2.02-4.037-3.024
			c-1.388-0.937-2.771-1.869-4.148-2.799c-1.382-0.932-2.759-1.859-4.13-2.783c-1.385-0.903-2.711-1.902-4.136-2.711
			c-2.814-1.698-5.605-3.381-8.372-5.049c-0.692-0.418-1.384-0.835-2.073-1.252c-0.699-0.396-1.412-0.762-2.116-1.143
			c-1.412-0.756-2.817-1.508-4.216-2.256c-1.399-0.75-2.792-1.496-4.177-2.238c-0.696-0.365-1.377-0.757-2.08-1.096
			c-0.706-0.333-1.41-0.664-2.111-0.994c-2.814-1.325-5.594-2.635-8.335-3.927c-0.688-0.319-1.368-0.657-2.059-0.958
			c-0.697-0.285-1.391-0.569-2.083-0.852c-1.386-0.567-2.761-1.13-4.127-1.688c-1.368-0.56-2.725-1.115-4.071-1.666
			c-1.349-0.55-2.678-1.124-4.039-1.565c-2.707-0.946-5.366-1.876-7.979-2.789c-1.309-0.458-2.606-0.912-3.89-1.361
			c-1.305-0.384-2.596-0.763-3.873-1.139c-5.125-1.456-10.01-3.06-14.778-4.064c-2.375-0.562-4.689-1.109-6.939-1.642
			c-1.128-0.256-2.232-0.553-3.336-0.765c-1.104-0.202-2.192-0.4-3.264-0.596c-4.288-0.761-8.306-1.566-12.037-2.15
			c-3.747-0.489-7.188-0.938-10.297-1.343c-1.56-0.194-3.033-0.417-4.43-0.556c-1.401-0.111-2.713-0.215-3.936-0.312
			c-2.442-0.193-4.521-0.358-6.206-0.491c-3.369-0.267-5.165-0.409-5.167-0.409l0,0h0.003c0.016,0,1.813-0.053,5.179-0.152
			c1.688-0.05,3.772-0.111,6.223-0.183c1.225-0.036,2.542-0.075,3.946-0.116c1.404-0.013,2.901,0.049,4.484,0.073
			c3.175,0.068,6.689,0.142,10.516,0.224c3.822,0.179,7.938,0.546,12.361,0.846c1.105,0.08,2.229,0.162,3.37,0.245
			c1.141,0.093,2.286,0.271,3.455,0.405c2.339,0.291,4.746,0.591,7.216,0.898c4.971,0.499,10.098,1.58,15.507,2.502
			c1.351,0.243,2.716,0.489,4.094,0.737c1.362,0.316,2.74,0.635,4.13,0.957c2.787,0.647,5.625,1.305,8.512,1.976
			c1.456,0.305,2.884,0.744,4.333,1.158c1.451,0.417,2.913,0.837,4.386,1.26c1.477,0.425,2.962,0.852,4.46,1.283
			c0.75,0.216,1.503,0.433,2.258,0.65c0.749,0.234,1.487,0.505,2.236,0.757c2.994,1.031,6.028,2.077,9.101,3.135
			c0.769,0.266,1.541,0.532,2.314,0.799c0.771,0.274,1.522,0.603,2.289,0.903c1.527,0.615,3.064,1.235,4.608,1.857
			c1.547,0.625,3.103,1.252,4.667,1.883c0.781,0.32,1.571,0.625,2.35,0.96c0.77,0.356,1.539,0.712,2.312,1.07
			c3.095,1.436,6.22,2.885,9.371,4.347c1.599,0.697,3.1,1.583,4.663,2.377c1.553,0.817,3.111,1.637,4.675,2.461
			c1.565,0.827,3.137,1.657,4.713,2.49c1.533,0.906,3.072,1.815,4.615,2.727c1.546,0.915,3.096,1.832,4.649,2.752
			c1.552,0.927,3.136,1.82,4.631,2.85c3.037,2.003,6.089,4.016,9.154,6.038c12.059,8.386,23.789,17.729,34.864,27.864
			c10.956,10.244,21.265,21.217,30.783,32.593c9.418,11.449,17.939,23.334,25.698,35.191c1.856,3.015,3.696,6.003,5.521,8.964
			c0.9,1.488,1.841,2.95,2.699,4.443c0.845,1.5,1.687,2.993,2.522,4.478c1.661,2.979,3.358,5.905,4.937,8.845
			c1.524,2.968,3.03,5.898,4.517,8.791c0.736,1.45,1.496,2.882,2.198,4.323c0.68,1.452,1.354,2.895,2.022,4.325
			c1.338,2.868,2.657,5.693,3.953,8.47c1.239,2.803,2.381,5.588,3.543,8.311c1.126,2.734,2.34,5.386,3.331,8.05
			c1.013,2.66,2.004,5.264,2.973,7.811c0.962,2.551,1.949,5.03,2.748,7.497c0.836,2.459,1.65,4.855,2.442,7.185
			c0.771,2.336,1.608,4.586,2.238,6.812c1.334,4.442,2.582,8.6,3.735,12.443c1.062,3.869,1.97,7.443,2.823,10.668
			c0.422,1.614,0.821,3.143,1.197,4.579c0.36,1.441,0.643,2.802,0.935,4.064c0.397,1.767,0.751,3.336,1.063,4.724h-24.956h-9.507
			h-15.056C736.759,588.682,736.565,587.388,736.361,586.019z"/>
		<path d="M15.611,741.184h918.777c8.622,0,15.611-6.989,15.611-15.61v-56.086c0-8.622-6.989-15.611-15.611-15.611H15.611
			C6.989,653.876,0,660.866,0,669.488v56.086C0,734.196,6.989,741.184,15.611,741.184z"/>
	</g>
</g>
<g>
</g>
<g>
</g>
<g>
</g>
<g>
</g>
<g>
</g>
<g>
</g>
<g>
</g>
<g>
</g>
<g>
</g>
<g>
</g>
<g>
</g>
<g>
</g>
<g>
</g>
<g>
</g>
<g>
</g>
</svg>
